<mxfile host="app.diagrams.net" agent="Mozilla/5.0 (Windows NT 10.0; Win64; x64) AppleWebKit/537.36 (KHTML, like Gecko) Chrome/136.0.0.0 Safari/537.36" version="27.0.9">
  <diagram name="Page-1" id="0rzDI1AXCvh2rnO1Wstj">
    <mxGraphModel grid="1" page="1" gridSize="10" guides="1" tooltips="1" connect="1" arrows="1" fold="1" pageScale="1" pageWidth="850" pageHeight="1100" math="0" shadow="0">
      <root>
        <mxCell id="0" />
        <mxCell id="1" parent="0" />
        <mxCell id="4z5-_E07Ed0E_tY2gobS-66" value="" style="whiteSpace=wrap;html=1;" vertex="1" parent="1">
          <mxGeometry x="715" y="280" width="85" height="40" as="geometry" />
        </mxCell>
        <mxCell id="4z5-_E07Ed0E_tY2gobS-56" value="" style="rhombus;whiteSpace=wrap;html=1;" vertex="1" parent="1">
          <mxGeometry x="710" y="180" width="100" height="60" as="geometry" />
        </mxCell>
        <mxCell id="6vz8U74tddEwZLjCGP19-3" value="" style="edgeStyle=orthogonalEdgeStyle;rounded=0;orthogonalLoop=1;jettySize=auto;html=1;" edge="1" parent="1" target="6vz8U74tddEwZLjCGP19-2">
          <mxGeometry relative="1" as="geometry">
            <mxPoint x="110" y="73" as="sourcePoint" />
          </mxGeometry>
        </mxCell>
        <mxCell id="6vz8U74tddEwZLjCGP19-5" style="edgeStyle=orthogonalEdgeStyle;rounded=0;orthogonalLoop=1;jettySize=auto;html=1;exitX=0;exitY=0.5;exitDx=0;exitDy=0;" edge="1" parent="1" source="6vz8U74tddEwZLjCGP19-1" target="6vz8U74tddEwZLjCGP19-4">
          <mxGeometry relative="1" as="geometry" />
        </mxCell>
        <mxCell id="6vz8U74tddEwZLjCGP19-6" style="edgeStyle=orthogonalEdgeStyle;rounded=0;orthogonalLoop=1;jettySize=auto;html=1;exitX=1;exitY=0.5;exitDx=0;exitDy=0;entryX=0.389;entryY=-0.05;entryDx=0;entryDy=0;entryPerimeter=0;" edge="1" parent="1" source="6vz8U74tddEwZLjCGP19-1" target="6vz8U74tddEwZLjCGP19-8">
          <mxGeometry relative="1" as="geometry">
            <mxPoint x="210" y="80" as="targetPoint" />
          </mxGeometry>
        </mxCell>
        <mxCell id="6vz8U74tddEwZLjCGP19-11" style="edgeStyle=orthogonalEdgeStyle;rounded=0;orthogonalLoop=1;jettySize=auto;html=1;exitX=0.5;exitY=0;exitDx=0;exitDy=0;endArrow=none;startFill=0;" edge="1" parent="1" source="6vz8U74tddEwZLjCGP19-1" target="6vz8U74tddEwZLjCGP19-12">
          <mxGeometry relative="1" as="geometry">
            <mxPoint x="450" y="100" as="targetPoint" />
            <Array as="points">
              <mxPoint x="130" y="10" />
              <mxPoint x="380" y="10" />
            </Array>
          </mxGeometry>
        </mxCell>
        <mxCell id="4z5-_E07Ed0E_tY2gobS-8" value="1" style="edgeLabel;html=1;align=center;verticalAlign=middle;resizable=0;points=[];" connectable="0" vertex="1" parent="6vz8U74tddEwZLjCGP19-11">
          <mxGeometry x="-0.66" relative="1" as="geometry">
            <mxPoint as="offset" />
          </mxGeometry>
        </mxCell>
        <mxCell id="6vz8U74tddEwZLjCGP19-13" style="edgeStyle=orthogonalEdgeStyle;rounded=0;orthogonalLoop=1;jettySize=auto;html=1;exitX=1;exitY=0.25;exitDx=0;exitDy=0;" edge="1" parent="1" source="6vz8U74tddEwZLjCGP19-1" target="6vz8U74tddEwZLjCGP19-14">
          <mxGeometry relative="1" as="geometry">
            <mxPoint x="320" y="120" as="targetPoint" />
          </mxGeometry>
        </mxCell>
        <mxCell id="4z5-_E07Ed0E_tY2gobS-6" value="1" style="edgeLabel;html=1;align=center;verticalAlign=middle;resizable=0;points=[];" connectable="0" vertex="1" parent="6vz8U74tddEwZLjCGP19-13">
          <mxGeometry x="-0.4667" relative="1" as="geometry">
            <mxPoint y="1" as="offset" />
          </mxGeometry>
        </mxCell>
        <mxCell id="4z5-_E07Ed0E_tY2gobS-9" style="edgeStyle=orthogonalEdgeStyle;rounded=0;orthogonalLoop=1;jettySize=auto;html=1;exitX=0.75;exitY=1;exitDx=0;exitDy=0;entryX=0.5;entryY=0;entryDx=0;entryDy=0;endArrow=none;startFill=0;" edge="1" parent="1" source="6vz8U74tddEwZLjCGP19-1" target="4z5-_E07Ed0E_tY2gobS-5">
          <mxGeometry relative="1" as="geometry">
            <Array as="points">
              <mxPoint x="160" y="70" />
            </Array>
          </mxGeometry>
        </mxCell>
        <mxCell id="4z5-_E07Ed0E_tY2gobS-10" value="1" style="edgeLabel;html=1;align=center;verticalAlign=middle;resizable=0;points=[];" connectable="0" vertex="1" parent="4z5-_E07Ed0E_tY2gobS-9">
          <mxGeometry x="-0.2973" y="2" relative="1" as="geometry">
            <mxPoint as="offset" />
          </mxGeometry>
        </mxCell>
        <mxCell id="6vz8U74tddEwZLjCGP19-1" value="Department&amp;nbsp;" style="rounded=0;whiteSpace=wrap;html=1;fillColor=#ffe6cc;strokeColor=#d79b00;" vertex="1" parent="1">
          <mxGeometry x="80" y="40" width="100" height="30" as="geometry" />
        </mxCell>
        <mxCell id="6vz8U74tddEwZLjCGP19-2" value="DName" style="ellipse;whiteSpace=wrap;html=1;rounded=0;" vertex="1" parent="1">
          <mxGeometry x="70" y="150" width="80" height="35" as="geometry" />
        </mxCell>
        <mxCell id="6vz8U74tddEwZLjCGP19-4" value="Dnum" style="ellipse;whiteSpace=wrap;html=1;rounded=0;gradientColor=none;gradientDirection=north;" vertex="1" parent="1">
          <mxGeometry x="10" y="90" width="80" height="35" as="geometry" />
        </mxCell>
        <mxCell id="6vz8U74tddEwZLjCGP19-8" value="" style="ellipse;whiteSpace=wrap;html=1;rounded=0;" vertex="1" parent="1">
          <mxGeometry x="165" y="82.5" width="90" height="50" as="geometry" />
        </mxCell>
        <mxCell id="6vz8U74tddEwZLjCGP19-9" value="location" style="ellipse;whiteSpace=wrap;html=1;rounded=0;" vertex="1" parent="1">
          <mxGeometry x="170" y="87.5" width="80" height="40" as="geometry" />
        </mxCell>
        <mxCell id="4z5-_E07Ed0E_tY2gobS-13" style="edgeStyle=orthogonalEdgeStyle;rounded=0;orthogonalLoop=1;jettySize=auto;html=1;exitX=1;exitY=0.5;exitDx=0;exitDy=0;entryX=0.5;entryY=0;entryDx=0;entryDy=0;endArrow=none;startFill=0;" edge="1" parent="1" source="6vz8U74tddEwZLjCGP19-12" target="4z5-_E07Ed0E_tY2gobS-12">
          <mxGeometry relative="1" as="geometry" />
        </mxCell>
        <mxCell id="4z5-_E07Ed0E_tY2gobS-16" value="1" style="edgeLabel;html=1;align=center;verticalAlign=middle;resizable=0;points=[];" connectable="0" vertex="1" parent="4z5-_E07Ed0E_tY2gobS-13">
          <mxGeometry x="0.6205" y="-1" relative="1" as="geometry">
            <mxPoint as="offset" />
          </mxGeometry>
        </mxCell>
        <mxCell id="6vz8U74tddEwZLjCGP19-12" value="Works" style="rhombus;whiteSpace=wrap;html=1;" vertex="1" parent="1">
          <mxGeometry x="340" y="30" width="80" height="40" as="geometry" />
        </mxCell>
        <mxCell id="4z5-_E07Ed0E_tY2gobS-1" style="edgeStyle=orthogonalEdgeStyle;rounded=0;orthogonalLoop=1;jettySize=auto;html=1;exitX=0.5;exitY=1;exitDx=0;exitDy=0;entryX=0.5;entryY=0;entryDx=0;entryDy=0;" edge="1" parent="1" source="6vz8U74tddEwZLjCGP19-14" target="4z5-_E07Ed0E_tY2gobS-3">
          <mxGeometry relative="1" as="geometry">
            <mxPoint x="320" y="150" as="targetPoint" />
          </mxGeometry>
        </mxCell>
        <mxCell id="4z5-_E07Ed0E_tY2gobS-14" style="edgeStyle=orthogonalEdgeStyle;rounded=0;orthogonalLoop=1;jettySize=auto;html=1;exitX=1;exitY=0.5;exitDx=0;exitDy=0;entryX=0;entryY=0.25;entryDx=0;entryDy=0;endArrow=none;startFill=0;" edge="1" parent="1" source="6vz8U74tddEwZLjCGP19-14" target="4z5-_E07Ed0E_tY2gobS-12">
          <mxGeometry relative="1" as="geometry" />
        </mxCell>
        <mxCell id="4z5-_E07Ed0E_tY2gobS-15" value="1" style="edgeLabel;html=1;align=center;verticalAlign=middle;resizable=0;points=[];" connectable="0" vertex="1" parent="4z5-_E07Ed0E_tY2gobS-14">
          <mxGeometry x="0.5077" y="2" relative="1" as="geometry">
            <mxPoint as="offset" />
          </mxGeometry>
        </mxCell>
        <mxCell id="6vz8U74tddEwZLjCGP19-14" value="Manages" style="rhombus;whiteSpace=wrap;html=1;" vertex="1" parent="1">
          <mxGeometry x="280" y="80" width="80" height="40" as="geometry" />
        </mxCell>
        <mxCell id="4z5-_E07Ed0E_tY2gobS-3" value="HieringDate" style="ellipse;whiteSpace=wrap;html=1;rounded=0;" vertex="1" parent="1">
          <mxGeometry x="280" y="140" width="80" height="35" as="geometry" />
        </mxCell>
        <mxCell id="4z5-_E07Ed0E_tY2gobS-11" style="edgeStyle=orthogonalEdgeStyle;rounded=0;orthogonalLoop=1;jettySize=auto;html=1;exitX=0.5;exitY=1;exitDx=0;exitDy=0;entryX=0;entryY=0.25;entryDx=0;entryDy=0;endArrow=none;startFill=0;" edge="1" parent="1" source="4z5-_E07Ed0E_tY2gobS-5" target="4z5-_E07Ed0E_tY2gobS-38">
          <mxGeometry relative="1" as="geometry">
            <mxPoint x="250" y="330" as="targetPoint" />
          </mxGeometry>
        </mxCell>
        <mxCell id="4z5-_E07Ed0E_tY2gobS-53" value="M" style="edgeLabel;html=1;align=center;verticalAlign=middle;resizable=0;points=[];" connectable="0" vertex="1" parent="4z5-_E07Ed0E_tY2gobS-11">
          <mxGeometry x="0.8073" y="-1" relative="1" as="geometry">
            <mxPoint y="1" as="offset" />
          </mxGeometry>
        </mxCell>
        <mxCell id="4z5-_E07Ed0E_tY2gobS-5" value="Has" style="rhombus;whiteSpace=wrap;html=1;" vertex="1" parent="1">
          <mxGeometry x="120" y="250" width="80" height="40" as="geometry" />
        </mxCell>
        <mxCell id="4z5-_E07Ed0E_tY2gobS-17" style="edgeStyle=orthogonalEdgeStyle;rounded=0;orthogonalLoop=1;jettySize=auto;html=1;exitX=0.75;exitY=0;exitDx=0;exitDy=0;entryX=0.5;entryY=1;entryDx=0;entryDy=0;" edge="1" parent="1" source="4z5-_E07Ed0E_tY2gobS-12" target="4z5-_E07Ed0E_tY2gobS-18">
          <mxGeometry relative="1" as="geometry">
            <mxPoint x="500" y="60" as="targetPoint" />
            <Array as="points">
              <mxPoint x="510" y="93" />
            </Array>
          </mxGeometry>
        </mxCell>
        <mxCell id="4z5-_E07Ed0E_tY2gobS-21" style="edgeStyle=orthogonalEdgeStyle;rounded=0;orthogonalLoop=1;jettySize=auto;html=1;exitX=1;exitY=0;exitDx=0;exitDy=0;entryX=0;entryY=0.5;entryDx=0;entryDy=0;" edge="1" parent="1" source="4z5-_E07Ed0E_tY2gobS-12" target="4z5-_E07Ed0E_tY2gobS-19">
          <mxGeometry relative="1" as="geometry" />
        </mxCell>
        <mxCell id="4z5-_E07Ed0E_tY2gobS-23" value="" style="edgeStyle=orthogonalEdgeStyle;rounded=0;orthogonalLoop=1;jettySize=auto;html=1;" edge="1" parent="1" source="4z5-_E07Ed0E_tY2gobS-12" target="4z5-_E07Ed0E_tY2gobS-22">
          <mxGeometry relative="1" as="geometry" />
        </mxCell>
        <mxCell id="4z5-_E07Ed0E_tY2gobS-33" style="edgeStyle=orthogonalEdgeStyle;rounded=0;orthogonalLoop=1;jettySize=auto;html=1;exitX=0.92;exitY=0.95;exitDx=0;exitDy=0;endArrow=none;startFill=0;exitPerimeter=0;" edge="1" parent="1" source="4z5-_E07Ed0E_tY2gobS-12" target="4z5-_E07Ed0E_tY2gobS-32">
          <mxGeometry relative="1" as="geometry" />
        </mxCell>
        <mxCell id="4z5-_E07Ed0E_tY2gobS-37" value="M" style="edgeLabel;html=1;align=center;verticalAlign=middle;resizable=0;points=[];" connectable="0" vertex="1" parent="4z5-_E07Ed0E_tY2gobS-33">
          <mxGeometry x="-0.3333" y="1" relative="1" as="geometry">
            <mxPoint x="-1" y="-18" as="offset" />
          </mxGeometry>
        </mxCell>
        <mxCell id="4z5-_E07Ed0E_tY2gobS-54" style="edgeStyle=orthogonalEdgeStyle;rounded=0;orthogonalLoop=1;jettySize=auto;html=1;exitX=1;exitY=0.75;exitDx=0;exitDy=0;endArrow=none;startFill=0;" edge="1" parent="1" source="4z5-_E07Ed0E_tY2gobS-12" target="4z5-_E07Ed0E_tY2gobS-55">
          <mxGeometry relative="1" as="geometry">
            <mxPoint x="900" y="180" as="targetPoint" />
            <Array as="points">
              <mxPoint x="525" y="150" />
              <mxPoint x="760" y="150" />
            </Array>
          </mxGeometry>
        </mxCell>
        <mxCell id="4z5-_E07Ed0E_tY2gobS-12" value="Employee" style="rounded=0;whiteSpace=wrap;html=1;fillColor=#ffe6cc;strokeColor=#d79b00;" vertex="1" parent="1">
          <mxGeometry x="425" y="92.5" width="100" height="30" as="geometry" />
        </mxCell>
        <mxCell id="4z5-_E07Ed0E_tY2gobS-18" value="Gender" style="ellipse;whiteSpace=wrap;html=1;rounded=0;" vertex="1" parent="1">
          <mxGeometry x="470" y="10" width="80" height="35" as="geometry" />
        </mxCell>
        <mxCell id="4z5-_E07Ed0E_tY2gobS-19" value="SSN" style="ellipse;whiteSpace=wrap;html=1;rounded=0;" vertex="1" parent="1">
          <mxGeometry x="560" y="30" width="80" height="35" as="geometry" />
        </mxCell>
        <mxCell id="4z5-_E07Ed0E_tY2gobS-24" style="edgeStyle=orthogonalEdgeStyle;rounded=0;orthogonalLoop=1;jettySize=auto;html=1;exitX=1;exitY=0.5;exitDx=0;exitDy=0;entryX=0.5;entryY=1;entryDx=0;entryDy=0;" edge="1" parent="1" source="4z5-_E07Ed0E_tY2gobS-22" target="4z5-_E07Ed0E_tY2gobS-26">
          <mxGeometry relative="1" as="geometry">
            <mxPoint x="700" y="70" as="targetPoint" />
          </mxGeometry>
        </mxCell>
        <mxCell id="4z5-_E07Ed0E_tY2gobS-25" style="edgeStyle=orthogonalEdgeStyle;rounded=0;orthogonalLoop=1;jettySize=auto;html=1;exitX=1;exitY=0.5;exitDx=0;exitDy=0;entryX=0;entryY=0.5;entryDx=0;entryDy=0;" edge="1" parent="1" source="4z5-_E07Ed0E_tY2gobS-22" target="4z5-_E07Ed0E_tY2gobS-27">
          <mxGeometry relative="1" as="geometry">
            <mxPoint x="750" y="107" as="targetPoint" />
          </mxGeometry>
        </mxCell>
        <mxCell id="4z5-_E07Ed0E_tY2gobS-22" value="Name" style="ellipse;whiteSpace=wrap;html=1;rounded=0;" vertex="1" parent="1">
          <mxGeometry x="580" y="88.75" width="80" height="36.25" as="geometry" />
        </mxCell>
        <mxCell id="4z5-_E07Ed0E_tY2gobS-26" value="FName" style="ellipse;whiteSpace=wrap;html=1;" vertex="1" parent="1">
          <mxGeometry x="660" y="40" width="80" height="20" as="geometry" />
        </mxCell>
        <mxCell id="4z5-_E07Ed0E_tY2gobS-27" value="LName" style="ellipse;whiteSpace=wrap;html=1;" vertex="1" parent="1">
          <mxGeometry x="750" y="96.88" width="80" height="20" as="geometry" />
        </mxCell>
        <mxCell id="4z5-_E07Ed0E_tY2gobS-31" style="edgeStyle=orthogonalEdgeStyle;rounded=0;orthogonalLoop=1;jettySize=auto;html=1;exitX=1;exitY=0;exitDx=0;exitDy=0;endArrow=none;startFill=0;" edge="1" parent="1" source="4z5-_E07Ed0E_tY2gobS-28">
          <mxGeometry relative="1" as="geometry">
            <mxPoint x="445" y="120" as="targetPoint" />
          </mxGeometry>
        </mxCell>
        <mxCell id="4z5-_E07Ed0E_tY2gobS-28" value="Supervises" style="rhombus;whiteSpace=wrap;html=1;" vertex="1" parent="1">
          <mxGeometry x="385" y="220" width="80" height="40" as="geometry" />
        </mxCell>
        <mxCell id="4z5-_E07Ed0E_tY2gobS-29" style="edgeStyle=orthogonalEdgeStyle;rounded=0;orthogonalLoop=1;jettySize=auto;html=1;exitX=0;exitY=1;exitDx=0;exitDy=0;entryX=0.5;entryY=0;entryDx=0;entryDy=0;endArrow=none;startFill=0;" edge="1" parent="1" source="4z5-_E07Ed0E_tY2gobS-12" target="4z5-_E07Ed0E_tY2gobS-28">
          <mxGeometry relative="1" as="geometry" />
        </mxCell>
        <mxCell id="4z5-_E07Ed0E_tY2gobS-35" value="" style="edgeStyle=orthogonalEdgeStyle;rounded=0;orthogonalLoop=1;jettySize=auto;html=1;exitX=1;exitY=0.5;exitDx=0;exitDy=0;" edge="1" parent="1" source="4z5-_E07Ed0E_tY2gobS-32" target="4z5-_E07Ed0E_tY2gobS-34">
          <mxGeometry relative="1" as="geometry" />
        </mxCell>
        <mxCell id="4z5-_E07Ed0E_tY2gobS-39" value="" style="edgeStyle=orthogonalEdgeStyle;rounded=0;orthogonalLoop=1;jettySize=auto;html=1;shape=link;" edge="1" parent="1" source="4z5-_E07Ed0E_tY2gobS-32" target="4z5-_E07Ed0E_tY2gobS-38">
          <mxGeometry relative="1" as="geometry" />
        </mxCell>
        <mxCell id="4z5-_E07Ed0E_tY2gobS-40" value="M" style="edgeLabel;html=1;align=center;verticalAlign=middle;resizable=0;points=[];" connectable="0" vertex="1" parent="4z5-_E07Ed0E_tY2gobS-39">
          <mxGeometry x="0.6286" y="1" relative="1" as="geometry">
            <mxPoint as="offset" />
          </mxGeometry>
        </mxCell>
        <mxCell id="4z5-_E07Ed0E_tY2gobS-32" value="Works" style="rhombus;whiteSpace=wrap;html=1;" vertex="1" parent="1">
          <mxGeometry x="480" y="200" width="80" height="40" as="geometry" />
        </mxCell>
        <mxCell id="4z5-_E07Ed0E_tY2gobS-34" value="Hours" style="ellipse;whiteSpace=wrap;html=1;" vertex="1" parent="1">
          <mxGeometry x="550" y="240" width="80" height="25" as="geometry" />
        </mxCell>
        <mxCell id="4z5-_E07Ed0E_tY2gobS-41" style="edgeStyle=orthogonalEdgeStyle;rounded=0;orthogonalLoop=1;jettySize=auto;html=1;exitX=1;exitY=0.25;exitDx=0;exitDy=0;entryX=0;entryY=0;entryDx=0;entryDy=0;" edge="1" parent="1" source="4z5-_E07Ed0E_tY2gobS-38" target="4z5-_E07Ed0E_tY2gobS-44">
          <mxGeometry relative="1" as="geometry">
            <mxPoint x="600" y="318" as="targetPoint" />
          </mxGeometry>
        </mxCell>
        <mxCell id="4z5-_E07Ed0E_tY2gobS-45" style="edgeStyle=orthogonalEdgeStyle;rounded=0;orthogonalLoop=1;jettySize=auto;html=1;exitX=1;exitY=0.75;exitDx=0;exitDy=0;" edge="1" parent="1" source="4z5-_E07Ed0E_tY2gobS-43">
          <mxGeometry relative="1" as="geometry">
            <mxPoint x="610" y="370" as="targetPoint" />
          </mxGeometry>
        </mxCell>
        <mxCell id="4z5-_E07Ed0E_tY2gobS-49" style="edgeStyle=orthogonalEdgeStyle;rounded=0;orthogonalLoop=1;jettySize=auto;html=1;exitX=0;exitY=0.75;exitDx=0;exitDy=0;" edge="1" parent="1" source="4z5-_E07Ed0E_tY2gobS-51">
          <mxGeometry relative="1" as="geometry">
            <mxPoint x="450" y="380" as="targetPoint" />
          </mxGeometry>
        </mxCell>
        <mxCell id="4z5-_E07Ed0E_tY2gobS-38" value="Project" style="whiteSpace=wrap;html=1;fillColor=#ffe6cc;strokeColor=#d79b00;" vertex="1" parent="1">
          <mxGeometry x="475" y="310" width="90" height="30" as="geometry" />
        </mxCell>
        <mxCell id="4z5-_E07Ed0E_tY2gobS-42" value="PNumber" style="ellipse;whiteSpace=wrap;html=1;" vertex="1" parent="1">
          <mxGeometry x="485" y="380" width="80" height="25" as="geometry" />
        </mxCell>
        <mxCell id="4z5-_E07Ed0E_tY2gobS-44" value="PName&amp;nbsp;" style="ellipse;whiteSpace=wrap;html=1;" vertex="1" parent="1">
          <mxGeometry x="610" y="310" width="80" height="25" as="geometry" />
        </mxCell>
        <mxCell id="4z5-_E07Ed0E_tY2gobS-46" value="" style="edgeStyle=orthogonalEdgeStyle;rounded=0;orthogonalLoop=1;jettySize=auto;html=1;exitX=1;exitY=0.75;exitDx=0;exitDy=0;" edge="1" parent="1" source="4z5-_E07Ed0E_tY2gobS-38" target="4z5-_E07Ed0E_tY2gobS-43">
          <mxGeometry relative="1" as="geometry">
            <mxPoint x="610" y="370" as="targetPoint" />
            <mxPoint x="565" y="333" as="sourcePoint" />
          </mxGeometry>
        </mxCell>
        <mxCell id="4z5-_E07Ed0E_tY2gobS-43" value="Location" style="ellipse;whiteSpace=wrap;html=1;" vertex="1" parent="1">
          <mxGeometry x="565" y="360" width="80" height="25" as="geometry" />
        </mxCell>
        <mxCell id="4z5-_E07Ed0E_tY2gobS-48" style="edgeStyle=orthogonalEdgeStyle;rounded=0;orthogonalLoop=1;jettySize=auto;html=1;exitX=0.5;exitY=1;exitDx=0;exitDy=0;entryX=0.425;entryY=-0.04;entryDx=0;entryDy=0;entryPerimeter=0;" edge="1" parent="1" source="4z5-_E07Ed0E_tY2gobS-38" target="4z5-_E07Ed0E_tY2gobS-42">
          <mxGeometry relative="1" as="geometry" />
        </mxCell>
        <mxCell id="4z5-_E07Ed0E_tY2gobS-52" value="" style="edgeStyle=orthogonalEdgeStyle;rounded=0;orthogonalLoop=1;jettySize=auto;html=1;exitX=0;exitY=0.75;exitDx=0;exitDy=0;" edge="1" parent="1" source="4z5-_E07Ed0E_tY2gobS-38" target="4z5-_E07Ed0E_tY2gobS-51">
          <mxGeometry relative="1" as="geometry">
            <mxPoint x="450" y="380" as="targetPoint" />
            <mxPoint x="475" y="333" as="sourcePoint" />
          </mxGeometry>
        </mxCell>
        <mxCell id="4z5-_E07Ed0E_tY2gobS-51" value="City" style="ellipse;whiteSpace=wrap;html=1;" vertex="1" parent="1">
          <mxGeometry x="410" y="370" width="80" height="25" as="geometry" />
        </mxCell>
        <mxCell id="4z5-_E07Ed0E_tY2gobS-58" value="" style="edgeStyle=orthogonalEdgeStyle;rounded=0;orthogonalLoop=1;jettySize=auto;html=1;shape=link;entryX=0.558;entryY=0.069;entryDx=0;entryDy=0;entryPerimeter=0;" edge="1" parent="1" source="4z5-_E07Ed0E_tY2gobS-55" target="4z5-_E07Ed0E_tY2gobS-66">
          <mxGeometry relative="1" as="geometry">
            <mxPoint x="760" y="290" as="targetPoint" />
          </mxGeometry>
        </mxCell>
        <mxCell id="4z5-_E07Ed0E_tY2gobS-55" value="Has" style="rhombus;whiteSpace=wrap;html=1;" vertex="1" parent="1">
          <mxGeometry x="720" y="190" width="80" height="40" as="geometry" />
        </mxCell>
        <mxCell id="4z5-_E07Ed0E_tY2gobS-60" value="" style="edgeStyle=orthogonalEdgeStyle;rounded=0;orthogonalLoop=1;jettySize=auto;html=1;" edge="1" parent="1" source="4z5-_E07Ed0E_tY2gobS-57" target="4z5-_E07Ed0E_tY2gobS-59">
          <mxGeometry relative="1" as="geometry" />
        </mxCell>
        <mxCell id="4z5-_E07Ed0E_tY2gobS-61" style="edgeStyle=orthogonalEdgeStyle;rounded=0;orthogonalLoop=1;jettySize=auto;html=1;exitX=1;exitY=0.5;exitDx=0;exitDy=0;" edge="1" parent="1" source="4z5-_E07Ed0E_tY2gobS-62">
          <mxGeometry relative="1" as="geometry">
            <mxPoint x="830" y="340" as="targetPoint" />
          </mxGeometry>
        </mxCell>
        <mxCell id="4z5-_E07Ed0E_tY2gobS-65" style="edgeStyle=orthogonalEdgeStyle;rounded=0;orthogonalLoop=1;jettySize=auto;html=1;entryX=0;entryY=0.5;entryDx=0;entryDy=0;" edge="1" parent="1" target="4z5-_E07Ed0E_tY2gobS-64">
          <mxGeometry relative="1" as="geometry">
            <mxPoint x="778" y="280" as="sourcePoint" />
          </mxGeometry>
        </mxCell>
        <mxCell id="4z5-_E07Ed0E_tY2gobS-57" value="Dependent" style="whiteSpace=wrap;html=1;fillColor=#ffe6cc;strokeColor=#d79b00;" vertex="1" parent="1">
          <mxGeometry x="717.5" y="290" width="80" height="20" as="geometry" />
        </mxCell>
        <mxCell id="4z5-_E07Ed0E_tY2gobS-59" value="DNAme" style="ellipse;whiteSpace=wrap;html=1;" vertex="1" parent="1">
          <mxGeometry x="725" y="370" width="70" height="20" as="geometry" />
        </mxCell>
        <mxCell id="4z5-_E07Ed0E_tY2gobS-63" value="" style="edgeStyle=orthogonalEdgeStyle;rounded=0;orthogonalLoop=1;jettySize=auto;html=1;exitX=1;exitY=0.5;exitDx=0;exitDy=0;" edge="1" parent="1" source="4z5-_E07Ed0E_tY2gobS-57" target="4z5-_E07Ed0E_tY2gobS-62">
          <mxGeometry relative="1" as="geometry">
            <mxPoint x="830" y="340" as="targetPoint" />
            <mxPoint x="800" y="310" as="sourcePoint" />
          </mxGeometry>
        </mxCell>
        <mxCell id="4z5-_E07Ed0E_tY2gobS-62" value="DOB" style="ellipse;whiteSpace=wrap;html=1;" vertex="1" parent="1">
          <mxGeometry x="797.5" y="320" width="70" height="20" as="geometry" />
        </mxCell>
        <mxCell id="4z5-_E07Ed0E_tY2gobS-64" value="Gender" style="ellipse;whiteSpace=wrap;html=1;" vertex="1" parent="1">
          <mxGeometry x="820" y="230" width="70" height="20" as="geometry" />
        </mxCell>
        <mxCell id="aQB4AwnQv8sHx1C0hQYE-1" value="EMPLOYEE" style="shape=table;startSize=30;container=1;collapsible=1;childLayout=tableLayout;fixedRows=1;rowLines=0;fontStyle=1;align=center;resizeLast=1;html=1;fillColor=#ffe6cc;strokeColor=#d79b00;" vertex="1" parent="1">
          <mxGeometry x="350.07" y="650" width="180" height="180" as="geometry" />
        </mxCell>
        <mxCell id="aQB4AwnQv8sHx1C0hQYE-2" value="" style="shape=tableRow;horizontal=0;startSize=0;swimlaneHead=0;swimlaneBody=0;fillColor=none;collapsible=0;dropTarget=0;points=[[0,0.5],[1,0.5]];portConstraint=eastwest;top=0;left=0;right=0;bottom=1;" vertex="1" parent="aQB4AwnQv8sHx1C0hQYE-1">
          <mxGeometry y="30" width="180" height="30" as="geometry" />
        </mxCell>
        <mxCell id="aQB4AwnQv8sHx1C0hQYE-3" value="PK" style="shape=partialRectangle;connectable=0;fillColor=none;top=0;left=0;bottom=0;right=0;fontStyle=1;overflow=hidden;whiteSpace=wrap;html=1;" vertex="1" parent="aQB4AwnQv8sHx1C0hQYE-2">
          <mxGeometry width="30" height="30" as="geometry">
            <mxRectangle width="30" height="30" as="alternateBounds" />
          </mxGeometry>
        </mxCell>
        <mxCell id="aQB4AwnQv8sHx1C0hQYE-4" value="SSN&amp;nbsp;" style="shape=partialRectangle;connectable=0;fillColor=none;top=0;left=0;bottom=0;right=0;align=left;spacingLeft=6;fontStyle=5;overflow=hidden;whiteSpace=wrap;html=1;" vertex="1" parent="aQB4AwnQv8sHx1C0hQYE-2">
          <mxGeometry x="30" width="150" height="30" as="geometry">
            <mxRectangle width="150" height="30" as="alternateBounds" />
          </mxGeometry>
        </mxCell>
        <mxCell id="aQB4AwnQv8sHx1C0hQYE-5" value="" style="shape=tableRow;horizontal=0;startSize=0;swimlaneHead=0;swimlaneBody=0;fillColor=none;collapsible=0;dropTarget=0;points=[[0,0.5],[1,0.5]];portConstraint=eastwest;top=0;left=0;right=0;bottom=0;" vertex="1" parent="aQB4AwnQv8sHx1C0hQYE-1">
          <mxGeometry y="60" width="180" height="30" as="geometry" />
        </mxCell>
        <mxCell id="aQB4AwnQv8sHx1C0hQYE-6" value="" style="shape=partialRectangle;connectable=0;fillColor=none;top=0;left=0;bottom=0;right=0;editable=1;overflow=hidden;" vertex="1" parent="aQB4AwnQv8sHx1C0hQYE-5">
          <mxGeometry width="30" height="30" as="geometry">
            <mxRectangle width="30" height="30" as="alternateBounds" />
          </mxGeometry>
        </mxCell>
        <mxCell id="aQB4AwnQv8sHx1C0hQYE-7" value="Lname" style="shape=partialRectangle;connectable=0;fillColor=none;top=0;left=0;bottom=0;right=0;align=left;spacingLeft=6;overflow=hidden;" vertex="1" parent="aQB4AwnQv8sHx1C0hQYE-5">
          <mxGeometry x="30" width="150" height="30" as="geometry">
            <mxRectangle width="150" height="30" as="alternateBounds" />
          </mxGeometry>
        </mxCell>
        <mxCell id="aQB4AwnQv8sHx1C0hQYE-8" value="" style="shape=tableRow;horizontal=0;startSize=0;swimlaneHead=0;swimlaneBody=0;fillColor=none;collapsible=0;dropTarget=0;points=[[0,0.5],[1,0.5]];portConstraint=eastwest;top=0;left=0;right=0;bottom=0;" vertex="1" parent="aQB4AwnQv8sHx1C0hQYE-1">
          <mxGeometry y="90" width="180" height="30" as="geometry" />
        </mxCell>
        <mxCell id="aQB4AwnQv8sHx1C0hQYE-9" value="" style="shape=partialRectangle;connectable=0;fillColor=none;top=0;left=0;bottom=0;right=0;editable=1;overflow=hidden;whiteSpace=wrap;html=1;" vertex="1" parent="aQB4AwnQv8sHx1C0hQYE-8">
          <mxGeometry width="30" height="30" as="geometry">
            <mxRectangle width="30" height="30" as="alternateBounds" />
          </mxGeometry>
        </mxCell>
        <mxCell id="aQB4AwnQv8sHx1C0hQYE-10" value="Fname" style="shape=partialRectangle;connectable=0;fillColor=none;top=0;left=0;bottom=0;right=0;align=left;spacingLeft=6;overflow=hidden;whiteSpace=wrap;html=1;" vertex="1" parent="aQB4AwnQv8sHx1C0hQYE-8">
          <mxGeometry x="30" width="150" height="30" as="geometry">
            <mxRectangle width="150" height="30" as="alternateBounds" />
          </mxGeometry>
        </mxCell>
        <mxCell id="aQB4AwnQv8sHx1C0hQYE-11" value="" style="shape=tableRow;horizontal=0;startSize=0;swimlaneHead=0;swimlaneBody=0;fillColor=none;collapsible=0;dropTarget=0;points=[[0,0.5],[1,0.5]];portConstraint=eastwest;top=0;left=0;right=0;bottom=0;" vertex="1" parent="aQB4AwnQv8sHx1C0hQYE-1">
          <mxGeometry y="120" width="180" height="30" as="geometry" />
        </mxCell>
        <mxCell id="aQB4AwnQv8sHx1C0hQYE-12" value="" style="shape=partialRectangle;connectable=0;fillColor=none;top=0;left=0;bottom=0;right=0;editable=1;overflow=hidden;whiteSpace=wrap;html=1;" vertex="1" parent="aQB4AwnQv8sHx1C0hQYE-11">
          <mxGeometry width="30" height="30" as="geometry">
            <mxRectangle width="30" height="30" as="alternateBounds" />
          </mxGeometry>
        </mxCell>
        <mxCell id="aQB4AwnQv8sHx1C0hQYE-13" value="Gender" style="shape=partialRectangle;connectable=0;fillColor=none;top=0;left=0;bottom=0;right=0;align=left;spacingLeft=6;overflow=hidden;whiteSpace=wrap;html=1;" vertex="1" parent="aQB4AwnQv8sHx1C0hQYE-11">
          <mxGeometry x="30" width="150" height="30" as="geometry">
            <mxRectangle width="150" height="30" as="alternateBounds" />
          </mxGeometry>
        </mxCell>
        <mxCell id="aQB4AwnQv8sHx1C0hQYE-14" value="" style="shape=tableRow;horizontal=0;startSize=0;swimlaneHead=0;swimlaneBody=0;fillColor=none;collapsible=0;dropTarget=0;points=[[0,0.5],[1,0.5]];portConstraint=eastwest;top=0;left=0;right=0;bottom=0;" vertex="1" parent="aQB4AwnQv8sHx1C0hQYE-1">
          <mxGeometry y="150" width="180" height="30" as="geometry" />
        </mxCell>
        <mxCell id="aQB4AwnQv8sHx1C0hQYE-15" value="&lt;div&gt;&lt;br&gt;&lt;/div&gt;&lt;div&gt;&lt;br&gt;&lt;/div&gt;" style="shape=partialRectangle;connectable=0;fillColor=none;top=0;left=0;bottom=0;right=0;editable=1;overflow=hidden;whiteSpace=wrap;html=1;" vertex="1" parent="aQB4AwnQv8sHx1C0hQYE-14">
          <mxGeometry width="30" height="30" as="geometry">
            <mxRectangle width="30" height="30" as="alternateBounds" />
          </mxGeometry>
        </mxCell>
        <mxCell id="aQB4AwnQv8sHx1C0hQYE-16" value="&lt;span style=&quot;text-align: center;&quot;&gt;DOB&lt;/span&gt;" style="shape=partialRectangle;connectable=0;fillColor=none;top=0;left=0;bottom=0;right=0;align=left;spacingLeft=6;overflow=hidden;whiteSpace=wrap;html=1;" vertex="1" parent="aQB4AwnQv8sHx1C0hQYE-14">
          <mxGeometry x="30" width="150" height="30" as="geometry">
            <mxRectangle width="150" height="30" as="alternateBounds" />
          </mxGeometry>
        </mxCell>
        <mxCell id="aQB4AwnQv8sHx1C0hQYE-17" value="Dependent" style="shape=table;startSize=30;container=1;collapsible=1;childLayout=tableLayout;fixedRows=1;rowLines=0;fontStyle=1;align=center;resizeLast=1;html=1;fillColor=#ffe6cc;strokeColor=#d79b00;" vertex="1" parent="1">
          <mxGeometry x="360" y="445" width="180.07" height="150" as="geometry" />
        </mxCell>
        <mxCell id="aQB4AwnQv8sHx1C0hQYE-18" value="" style="shape=tableRow;horizontal=0;startSize=0;swimlaneHead=0;swimlaneBody=0;fillColor=none;collapsible=0;dropTarget=0;points=[[0,0.5],[1,0.5]];portConstraint=eastwest;top=0;left=0;right=0;bottom=1;" vertex="1" parent="aQB4AwnQv8sHx1C0hQYE-17">
          <mxGeometry y="30" width="180.07" height="30" as="geometry" />
        </mxCell>
        <mxCell id="aQB4AwnQv8sHx1C0hQYE-19" value="PK,FK1" style="shape=partialRectangle;connectable=0;fillColor=none;top=0;left=0;bottom=0;right=0;fontStyle=1;overflow=hidden;whiteSpace=wrap;html=1;" vertex="1" parent="aQB4AwnQv8sHx1C0hQYE-18">
          <mxGeometry width="60" height="30" as="geometry">
            <mxRectangle width="60" height="30" as="alternateBounds" />
          </mxGeometry>
        </mxCell>
        <mxCell id="aQB4AwnQv8sHx1C0hQYE-20" value="SSN&amp;nbsp;" style="shape=partialRectangle;connectable=0;fillColor=none;top=0;left=0;bottom=0;right=0;align=left;spacingLeft=6;fontStyle=5;overflow=hidden;whiteSpace=wrap;html=1;" vertex="1" parent="aQB4AwnQv8sHx1C0hQYE-18">
          <mxGeometry x="60" width="120.07" height="30" as="geometry">
            <mxRectangle width="120.07" height="30" as="alternateBounds" />
          </mxGeometry>
        </mxCell>
        <mxCell id="aQB4AwnQv8sHx1C0hQYE-21" value="" style="shape=tableRow;horizontal=0;startSize=0;swimlaneHead=0;swimlaneBody=0;fillColor=none;collapsible=0;dropTarget=0;points=[[0,0.5],[1,0.5]];portConstraint=eastwest;top=0;left=0;right=0;bottom=0;" vertex="1" parent="aQB4AwnQv8sHx1C0hQYE-17">
          <mxGeometry y="60" width="180.07" height="30" as="geometry" />
        </mxCell>
        <mxCell id="aQB4AwnQv8sHx1C0hQYE-22" value="&lt;span style=&quot;font-weight: 700;&quot;&gt;PK,FK2&lt;/span&gt;" style="shape=partialRectangle;connectable=0;fillColor=none;top=0;left=0;bottom=0;right=0;fontStyle=0;overflow=hidden;whiteSpace=wrap;html=1;" vertex="1" parent="aQB4AwnQv8sHx1C0hQYE-21">
          <mxGeometry width="60" height="30" as="geometry">
            <mxRectangle width="60" height="30" as="alternateBounds" />
          </mxGeometry>
        </mxCell>
        <mxCell id="aQB4AwnQv8sHx1C0hQYE-23" value="&lt;u&gt;Name&lt;/u&gt;" style="shape=partialRectangle;connectable=0;fillColor=none;top=0;left=0;bottom=0;right=0;align=left;spacingLeft=6;fontStyle=0;overflow=hidden;whiteSpace=wrap;html=1;" vertex="1" parent="aQB4AwnQv8sHx1C0hQYE-21">
          <mxGeometry x="60" width="120.07" height="30" as="geometry">
            <mxRectangle width="120.07" height="30" as="alternateBounds" />
          </mxGeometry>
        </mxCell>
        <mxCell id="aQB4AwnQv8sHx1C0hQYE-24" value="" style="shape=tableRow;horizontal=0;startSize=0;swimlaneHead=0;swimlaneBody=0;fillColor=none;collapsible=0;dropTarget=0;points=[[0,0.5],[1,0.5]];portConstraint=eastwest;top=0;left=0;right=0;bottom=0;" vertex="1" parent="aQB4AwnQv8sHx1C0hQYE-17">
          <mxGeometry y="90" width="180.07" height="30" as="geometry" />
        </mxCell>
        <mxCell id="aQB4AwnQv8sHx1C0hQYE-25" value="" style="shape=partialRectangle;connectable=0;fillColor=none;top=0;left=0;bottom=0;right=0;editable=1;overflow=hidden;whiteSpace=wrap;html=1;" vertex="1" parent="aQB4AwnQv8sHx1C0hQYE-24">
          <mxGeometry width="60" height="30" as="geometry">
            <mxRectangle width="60" height="30" as="alternateBounds" />
          </mxGeometry>
        </mxCell>
        <mxCell id="aQB4AwnQv8sHx1C0hQYE-26" value="Gender" style="shape=partialRectangle;connectable=0;fillColor=none;top=0;left=0;bottom=0;right=0;align=left;spacingLeft=6;overflow=hidden;whiteSpace=wrap;html=1;" vertex="1" parent="aQB4AwnQv8sHx1C0hQYE-24">
          <mxGeometry x="60" width="120.07" height="30" as="geometry">
            <mxRectangle width="120.07" height="30" as="alternateBounds" />
          </mxGeometry>
        </mxCell>
        <mxCell id="aQB4AwnQv8sHx1C0hQYE-27" value="" style="shape=tableRow;horizontal=0;startSize=0;swimlaneHead=0;swimlaneBody=0;fillColor=none;collapsible=0;dropTarget=0;points=[[0,0.5],[1,0.5]];portConstraint=eastwest;top=0;left=0;right=0;bottom=0;" vertex="1" parent="aQB4AwnQv8sHx1C0hQYE-17">
          <mxGeometry y="120" width="180.07" height="30" as="geometry" />
        </mxCell>
        <mxCell id="aQB4AwnQv8sHx1C0hQYE-28" value="&lt;div&gt;&lt;br&gt;&lt;/div&gt;&lt;div&gt;&lt;br&gt;&lt;/div&gt;" style="shape=partialRectangle;connectable=0;fillColor=none;top=0;left=0;bottom=0;right=0;editable=1;overflow=hidden;whiteSpace=wrap;html=1;" vertex="1" parent="aQB4AwnQv8sHx1C0hQYE-27">
          <mxGeometry width="60" height="30" as="geometry">
            <mxRectangle width="60" height="30" as="alternateBounds" />
          </mxGeometry>
        </mxCell>
        <mxCell id="aQB4AwnQv8sHx1C0hQYE-29" value="&lt;span style=&quot;text-align: center;&quot;&gt;DOB&lt;/span&gt;" style="shape=partialRectangle;connectable=0;fillColor=none;top=0;left=0;bottom=0;right=0;align=left;spacingLeft=6;overflow=hidden;whiteSpace=wrap;html=1;" vertex="1" parent="aQB4AwnQv8sHx1C0hQYE-27">
          <mxGeometry x="60" width="120.07" height="30" as="geometry">
            <mxRectangle width="120.07" height="30" as="alternateBounds" />
          </mxGeometry>
        </mxCell>
        <mxCell id="aQB4AwnQv8sHx1C0hQYE-30" value="Department" style="shape=table;startSize=30;container=1;collapsible=1;childLayout=tableLayout;fixedRows=1;rowLines=0;fontStyle=1;align=center;resizeLast=1;html=1;fillColor=#ffe6cc;strokeColor=#d79b00;" vertex="1" parent="1">
          <mxGeometry x="90.07" y="670" width="180" height="90" as="geometry" />
        </mxCell>
        <mxCell id="aQB4AwnQv8sHx1C0hQYE-31" value="" style="shape=tableRow;horizontal=0;startSize=0;swimlaneHead=0;swimlaneBody=0;fillColor=none;collapsible=0;dropTarget=0;points=[[0,0.5],[1,0.5]];portConstraint=eastwest;top=0;left=0;right=0;bottom=1;" vertex="1" parent="aQB4AwnQv8sHx1C0hQYE-30">
          <mxGeometry y="30" width="180" height="30" as="geometry" />
        </mxCell>
        <mxCell id="aQB4AwnQv8sHx1C0hQYE-32" value="PK" style="shape=partialRectangle;connectable=0;fillColor=none;top=0;left=0;bottom=0;right=0;fontStyle=1;overflow=hidden;whiteSpace=wrap;html=1;" vertex="1" parent="aQB4AwnQv8sHx1C0hQYE-31">
          <mxGeometry width="30" height="30" as="geometry">
            <mxRectangle width="30" height="30" as="alternateBounds" />
          </mxGeometry>
        </mxCell>
        <mxCell id="aQB4AwnQv8sHx1C0hQYE-33" value="DNUM" style="shape=partialRectangle;connectable=0;fillColor=none;top=0;left=0;bottom=0;right=0;align=left;spacingLeft=6;fontStyle=5;overflow=hidden;whiteSpace=wrap;html=1;" vertex="1" parent="aQB4AwnQv8sHx1C0hQYE-31">
          <mxGeometry x="30" width="150" height="30" as="geometry">
            <mxRectangle width="150" height="30" as="alternateBounds" />
          </mxGeometry>
        </mxCell>
        <mxCell id="aQB4AwnQv8sHx1C0hQYE-34" value="" style="shape=tableRow;horizontal=0;startSize=0;swimlaneHead=0;swimlaneBody=0;fillColor=none;collapsible=0;dropTarget=0;points=[[0,0.5],[1,0.5]];portConstraint=eastwest;top=0;left=0;right=0;bottom=0;" vertex="1" parent="aQB4AwnQv8sHx1C0hQYE-30">
          <mxGeometry y="60" width="180" height="30" as="geometry" />
        </mxCell>
        <mxCell id="aQB4AwnQv8sHx1C0hQYE-35" value="" style="shape=partialRectangle;connectable=0;fillColor=none;top=0;left=0;bottom=0;right=0;editable=1;overflow=hidden;whiteSpace=wrap;html=1;" vertex="1" parent="aQB4AwnQv8sHx1C0hQYE-34">
          <mxGeometry width="30" height="30" as="geometry">
            <mxRectangle width="30" height="30" as="alternateBounds" />
          </mxGeometry>
        </mxCell>
        <mxCell id="aQB4AwnQv8sHx1C0hQYE-36" value="DName" style="shape=partialRectangle;connectable=0;fillColor=none;top=0;left=0;bottom=0;right=0;align=left;spacingLeft=6;overflow=hidden;whiteSpace=wrap;html=1;" vertex="1" parent="aQB4AwnQv8sHx1C0hQYE-34">
          <mxGeometry x="30" width="150" height="30" as="geometry">
            <mxRectangle width="150" height="30" as="alternateBounds" />
          </mxGeometry>
        </mxCell>
        <mxCell id="aQB4AwnQv8sHx1C0hQYE-37" value="Project" style="shape=table;startSize=30;container=1;collapsible=1;childLayout=tableLayout;fixedRows=1;rowLines=0;fontStyle=1;align=center;resizeLast=1;html=1;fillColor=#ffe6cc;strokeColor=#d79b00;" vertex="1" parent="1">
          <mxGeometry x="610" y="470" width="180" height="180" as="geometry" />
        </mxCell>
        <mxCell id="aQB4AwnQv8sHx1C0hQYE-38" value="" style="shape=tableRow;horizontal=0;startSize=0;swimlaneHead=0;swimlaneBody=0;fillColor=none;collapsible=0;dropTarget=0;points=[[0,0.5],[1,0.5]];portConstraint=eastwest;top=0;left=0;right=0;bottom=1;" vertex="1" parent="aQB4AwnQv8sHx1C0hQYE-37">
          <mxGeometry y="30" width="180" height="30" as="geometry" />
        </mxCell>
        <mxCell id="aQB4AwnQv8sHx1C0hQYE-39" value="PK" style="shape=partialRectangle;connectable=0;fillColor=none;top=0;left=0;bottom=0;right=0;fontStyle=1;overflow=hidden;whiteSpace=wrap;html=1;" vertex="1" parent="aQB4AwnQv8sHx1C0hQYE-38">
          <mxGeometry width="30" height="30" as="geometry">
            <mxRectangle width="30" height="30" as="alternateBounds" />
          </mxGeometry>
        </mxCell>
        <mxCell id="aQB4AwnQv8sHx1C0hQYE-40" value="PNumber" style="shape=partialRectangle;connectable=0;fillColor=none;top=0;left=0;bottom=0;right=0;align=left;spacingLeft=6;fontStyle=5;overflow=hidden;whiteSpace=wrap;html=1;" vertex="1" parent="aQB4AwnQv8sHx1C0hQYE-38">
          <mxGeometry x="30" width="150" height="30" as="geometry">
            <mxRectangle width="150" height="30" as="alternateBounds" />
          </mxGeometry>
        </mxCell>
        <mxCell id="aQB4AwnQv8sHx1C0hQYE-41" value="" style="shape=tableRow;horizontal=0;startSize=0;swimlaneHead=0;swimlaneBody=0;fillColor=none;collapsible=0;dropTarget=0;points=[[0,0.5],[1,0.5]];portConstraint=eastwest;top=0;left=0;right=0;bottom=0;" vertex="1" parent="aQB4AwnQv8sHx1C0hQYE-37">
          <mxGeometry y="60" width="180" height="30" as="geometry" />
        </mxCell>
        <mxCell id="aQB4AwnQv8sHx1C0hQYE-42" value="" style="shape=partialRectangle;connectable=0;fillColor=none;top=0;left=0;bottom=0;right=0;editable=1;overflow=hidden;whiteSpace=wrap;html=1;" vertex="1" parent="aQB4AwnQv8sHx1C0hQYE-41">
          <mxGeometry width="30" height="30" as="geometry">
            <mxRectangle width="30" height="30" as="alternateBounds" />
          </mxGeometry>
        </mxCell>
        <mxCell id="aQB4AwnQv8sHx1C0hQYE-43" value="PName" style="shape=partialRectangle;connectable=0;fillColor=none;top=0;left=0;bottom=0;right=0;align=left;spacingLeft=6;overflow=hidden;whiteSpace=wrap;html=1;" vertex="1" parent="aQB4AwnQv8sHx1C0hQYE-41">
          <mxGeometry x="30" width="150" height="30" as="geometry">
            <mxRectangle width="150" height="30" as="alternateBounds" />
          </mxGeometry>
        </mxCell>
        <mxCell id="aQB4AwnQv8sHx1C0hQYE-44" value="" style="shape=tableRow;horizontal=0;startSize=0;swimlaneHead=0;swimlaneBody=0;fillColor=none;collapsible=0;dropTarget=0;points=[[0,0.5],[1,0.5]];portConstraint=eastwest;top=0;left=0;right=0;bottom=0;" vertex="1" parent="aQB4AwnQv8sHx1C0hQYE-37">
          <mxGeometry y="90" width="180" height="30" as="geometry" />
        </mxCell>
        <mxCell id="aQB4AwnQv8sHx1C0hQYE-45" value="" style="shape=partialRectangle;connectable=0;fillColor=none;top=0;left=0;bottom=0;right=0;editable=1;overflow=hidden;whiteSpace=wrap;html=1;" vertex="1" parent="aQB4AwnQv8sHx1C0hQYE-44">
          <mxGeometry width="30" height="30" as="geometry">
            <mxRectangle width="30" height="30" as="alternateBounds" />
          </mxGeometry>
        </mxCell>
        <mxCell id="aQB4AwnQv8sHx1C0hQYE-46" value="Location" style="shape=partialRectangle;connectable=0;fillColor=none;top=0;left=0;bottom=0;right=0;align=left;spacingLeft=6;overflow=hidden;whiteSpace=wrap;html=1;" vertex="1" parent="aQB4AwnQv8sHx1C0hQYE-44">
          <mxGeometry x="30" width="150" height="30" as="geometry">
            <mxRectangle width="150" height="30" as="alternateBounds" />
          </mxGeometry>
        </mxCell>
        <mxCell id="aQB4AwnQv8sHx1C0hQYE-47" value="" style="shape=tableRow;horizontal=0;startSize=0;swimlaneHead=0;swimlaneBody=0;fillColor=none;collapsible=0;dropTarget=0;points=[[0,0.5],[1,0.5]];portConstraint=eastwest;top=0;left=0;right=0;bottom=0;" vertex="1" parent="aQB4AwnQv8sHx1C0hQYE-37">
          <mxGeometry y="120" width="180" height="30" as="geometry" />
        </mxCell>
        <mxCell id="aQB4AwnQv8sHx1C0hQYE-48" value="" style="shape=partialRectangle;connectable=0;fillColor=none;top=0;left=0;bottom=0;right=0;editable=1;overflow=hidden;whiteSpace=wrap;html=1;" vertex="1" parent="aQB4AwnQv8sHx1C0hQYE-47">
          <mxGeometry width="30" height="30" as="geometry">
            <mxRectangle width="30" height="30" as="alternateBounds" />
          </mxGeometry>
        </mxCell>
        <mxCell id="aQB4AwnQv8sHx1C0hQYE-49" value="City" style="shape=partialRectangle;connectable=0;fillColor=none;top=0;left=0;bottom=0;right=0;align=left;spacingLeft=6;overflow=hidden;whiteSpace=wrap;html=1;" vertex="1" parent="aQB4AwnQv8sHx1C0hQYE-47">
          <mxGeometry x="30" width="150" height="30" as="geometry">
            <mxRectangle width="150" height="30" as="alternateBounds" />
          </mxGeometry>
        </mxCell>
        <mxCell id="aQB4AwnQv8sHx1C0hQYE-50" value="" style="shape=tableRow;horizontal=0;startSize=0;swimlaneHead=0;swimlaneBody=0;fillColor=none;collapsible=0;dropTarget=0;points=[[0,0.5],[1,0.5]];portConstraint=eastwest;top=0;left=0;right=0;bottom=0;" vertex="1" parent="aQB4AwnQv8sHx1C0hQYE-37">
          <mxGeometry y="150" width="180" height="30" as="geometry" />
        </mxCell>
        <mxCell id="aQB4AwnQv8sHx1C0hQYE-51" value="" style="shape=partialRectangle;connectable=0;fillColor=none;top=0;left=0;bottom=0;right=0;editable=1;overflow=hidden;" vertex="1" parent="aQB4AwnQv8sHx1C0hQYE-50">
          <mxGeometry width="30" height="30" as="geometry">
            <mxRectangle width="30" height="30" as="alternateBounds" />
          </mxGeometry>
        </mxCell>
        <mxCell id="aQB4AwnQv8sHx1C0hQYE-52" value="PNumber" style="shape=partialRectangle;connectable=0;fillColor=none;top=0;left=0;bottom=0;right=0;align=left;spacingLeft=6;overflow=hidden;" vertex="1" parent="aQB4AwnQv8sHx1C0hQYE-50">
          <mxGeometry x="30" width="150" height="30" as="geometry">
            <mxRectangle width="150" height="30" as="alternateBounds" />
          </mxGeometry>
        </mxCell>
        <mxCell id="aQB4AwnQv8sHx1C0hQYE-53" style="edgeStyle=orthogonalEdgeStyle;rounded=0;orthogonalLoop=1;jettySize=auto;html=1;exitX=0.5;exitY=0;exitDx=0;exitDy=0;entryX=0;entryY=0.5;entryDx=0;entryDy=0;" edge="1" parent="1" source="aQB4AwnQv8sHx1C0hQYE-54" target="aQB4AwnQv8sHx1C0hQYE-31">
          <mxGeometry relative="1" as="geometry" />
        </mxCell>
        <mxCell id="aQB4AwnQv8sHx1C0hQYE-54" value="locations" style="shape=table;startSize=30;container=1;collapsible=1;childLayout=tableLayout;fixedRows=1;rowLines=0;fontStyle=1;align=center;resizeLast=1;html=1;fillColor=#ffe6cc;strokeColor=#d79b00;" vertex="1" parent="1">
          <mxGeometry x="49.99999999999999" y="505" width="180" height="90" as="geometry" />
        </mxCell>
        <mxCell id="aQB4AwnQv8sHx1C0hQYE-55" value="" style="shape=tableRow;horizontal=0;startSize=0;swimlaneHead=0;swimlaneBody=0;fillColor=none;collapsible=0;dropTarget=0;points=[[0,0.5],[1,0.5]];portConstraint=eastwest;top=0;left=0;right=0;bottom=1;" vertex="1" parent="aQB4AwnQv8sHx1C0hQYE-54">
          <mxGeometry y="30" width="180" height="30" as="geometry" />
        </mxCell>
        <mxCell id="aQB4AwnQv8sHx1C0hQYE-56" value="PK,FK1" style="shape=partialRectangle;connectable=0;fillColor=none;top=0;left=0;bottom=0;right=0;fontStyle=1;overflow=hidden;whiteSpace=wrap;html=1;" vertex="1" parent="aQB4AwnQv8sHx1C0hQYE-55">
          <mxGeometry width="60" height="30" as="geometry">
            <mxRectangle width="60" height="30" as="alternateBounds" />
          </mxGeometry>
        </mxCell>
        <mxCell id="aQB4AwnQv8sHx1C0hQYE-57" value="DNUM" style="shape=partialRectangle;connectable=0;fillColor=none;top=0;left=0;bottom=0;right=0;align=left;spacingLeft=6;fontStyle=5;overflow=hidden;whiteSpace=wrap;html=1;" vertex="1" parent="aQB4AwnQv8sHx1C0hQYE-55">
          <mxGeometry x="60" width="120" height="30" as="geometry">
            <mxRectangle width="120" height="30" as="alternateBounds" />
          </mxGeometry>
        </mxCell>
        <mxCell id="aQB4AwnQv8sHx1C0hQYE-58" value="" style="shape=tableRow;horizontal=0;startSize=0;swimlaneHead=0;swimlaneBody=0;fillColor=none;collapsible=0;dropTarget=0;points=[[0,0.5],[1,0.5]];portConstraint=eastwest;top=0;left=0;right=0;bottom=0;" vertex="1" parent="aQB4AwnQv8sHx1C0hQYE-54">
          <mxGeometry y="60" width="180" height="30" as="geometry" />
        </mxCell>
        <mxCell id="aQB4AwnQv8sHx1C0hQYE-59" value="" style="shape=partialRectangle;connectable=0;fillColor=none;top=0;left=0;bottom=0;right=0;editable=1;overflow=hidden;whiteSpace=wrap;html=1;" vertex="1" parent="aQB4AwnQv8sHx1C0hQYE-58">
          <mxGeometry width="60" height="30" as="geometry">
            <mxRectangle width="60" height="30" as="alternateBounds" />
          </mxGeometry>
        </mxCell>
        <mxCell id="aQB4AwnQv8sHx1C0hQYE-60" value="location" style="shape=partialRectangle;connectable=0;fillColor=none;top=0;left=0;bottom=0;right=0;align=left;spacingLeft=6;overflow=hidden;whiteSpace=wrap;html=1;" vertex="1" parent="aQB4AwnQv8sHx1C0hQYE-58">
          <mxGeometry x="60" width="120" height="30" as="geometry">
            <mxRectangle width="120" height="30" as="alternateBounds" />
          </mxGeometry>
        </mxCell>
        <mxCell id="aQB4AwnQv8sHx1C0hQYE-61" value="EMP-DEPT" style="shape=table;startSize=30;container=1;collapsible=1;childLayout=tableLayout;fixedRows=1;rowLines=0;fontStyle=1;align=center;resizeLast=1;html=1;fillColor=#ffe6cc;strokeColor=#d79b00;" vertex="1" parent="1">
          <mxGeometry x="350.07" y="840" width="180" height="120" as="geometry" />
        </mxCell>
        <mxCell id="aQB4AwnQv8sHx1C0hQYE-62" value="" style="shape=tableRow;horizontal=0;startSize=0;swimlaneHead=0;swimlaneBody=0;fillColor=none;collapsible=0;dropTarget=0;points=[[0,0.5],[1,0.5]];portConstraint=eastwest;top=0;left=0;right=0;bottom=1;" vertex="1" parent="aQB4AwnQv8sHx1C0hQYE-61">
          <mxGeometry y="30" width="180" height="30" as="geometry" />
        </mxCell>
        <mxCell id="aQB4AwnQv8sHx1C0hQYE-63" value="PK,FK1" style="shape=partialRectangle;connectable=0;fillColor=none;top=0;left=0;bottom=0;right=0;fontStyle=1;overflow=hidden;whiteSpace=wrap;html=1;" vertex="1" parent="aQB4AwnQv8sHx1C0hQYE-62">
          <mxGeometry width="60" height="30" as="geometry">
            <mxRectangle width="60" height="30" as="alternateBounds" />
          </mxGeometry>
        </mxCell>
        <mxCell id="aQB4AwnQv8sHx1C0hQYE-64" value="SSN" style="shape=partialRectangle;connectable=0;fillColor=none;top=0;left=0;bottom=0;right=0;align=left;spacingLeft=6;fontStyle=5;overflow=hidden;whiteSpace=wrap;html=1;" vertex="1" parent="aQB4AwnQv8sHx1C0hQYE-62">
          <mxGeometry x="60" width="120" height="30" as="geometry">
            <mxRectangle width="120" height="30" as="alternateBounds" />
          </mxGeometry>
        </mxCell>
        <mxCell id="aQB4AwnQv8sHx1C0hQYE-65" value="" style="shape=tableRow;horizontal=0;startSize=0;swimlaneHead=0;swimlaneBody=0;fillColor=none;collapsible=0;dropTarget=0;points=[[0,0.5],[1,0.5]];portConstraint=eastwest;top=0;left=0;right=0;bottom=0;" vertex="1" parent="aQB4AwnQv8sHx1C0hQYE-61">
          <mxGeometry y="60" width="180" height="30" as="geometry" />
        </mxCell>
        <mxCell id="aQB4AwnQv8sHx1C0hQYE-66" value="&lt;span style=&quot;font-weight: 700;&quot;&gt;PK,FK2&lt;/span&gt;" style="shape=partialRectangle;connectable=0;fillColor=none;top=0;left=0;bottom=0;right=0;editable=1;overflow=hidden;whiteSpace=wrap;html=1;" vertex="1" parent="aQB4AwnQv8sHx1C0hQYE-65">
          <mxGeometry width="60" height="30" as="geometry">
            <mxRectangle width="60" height="30" as="alternateBounds" />
          </mxGeometry>
        </mxCell>
        <mxCell id="aQB4AwnQv8sHx1C0hQYE-67" value="&lt;u&gt;DNUM&lt;/u&gt;" style="shape=partialRectangle;connectable=0;fillColor=none;top=0;left=0;bottom=0;right=0;align=left;spacingLeft=6;overflow=hidden;whiteSpace=wrap;html=1;" vertex="1" parent="aQB4AwnQv8sHx1C0hQYE-65">
          <mxGeometry x="60" width="120" height="30" as="geometry">
            <mxRectangle width="120" height="30" as="alternateBounds" />
          </mxGeometry>
        </mxCell>
        <mxCell id="aQB4AwnQv8sHx1C0hQYE-68" value="" style="shape=tableRow;horizontal=0;startSize=0;swimlaneHead=0;swimlaneBody=0;fillColor=none;collapsible=0;dropTarget=0;points=[[0,0.5],[1,0.5]];portConstraint=eastwest;top=0;left=0;right=0;bottom=0;" vertex="1" parent="aQB4AwnQv8sHx1C0hQYE-61">
          <mxGeometry y="90" width="180" height="30" as="geometry" />
        </mxCell>
        <mxCell id="aQB4AwnQv8sHx1C0hQYE-69" value="" style="shape=partialRectangle;connectable=0;fillColor=none;top=0;left=0;bottom=0;right=0;editable=1;overflow=hidden;whiteSpace=wrap;html=1;" vertex="1" parent="aQB4AwnQv8sHx1C0hQYE-68">
          <mxGeometry width="60" height="30" as="geometry">
            <mxRectangle width="60" height="30" as="alternateBounds" />
          </mxGeometry>
        </mxCell>
        <mxCell id="aQB4AwnQv8sHx1C0hQYE-70" value="&lt;span style=&quot;text-align: center;&quot;&gt;HieringDate&lt;/span&gt;" style="shape=partialRectangle;connectable=0;fillColor=none;top=0;left=0;bottom=0;right=0;align=left;spacingLeft=6;overflow=hidden;whiteSpace=wrap;html=1;" vertex="1" parent="aQB4AwnQv8sHx1C0hQYE-68">
          <mxGeometry x="60" width="120" height="30" as="geometry">
            <mxRectangle width="120" height="30" as="alternateBounds" />
          </mxGeometry>
        </mxCell>
        <mxCell id="aQB4AwnQv8sHx1C0hQYE-71" value="EMP-PRO" style="shape=table;startSize=30;container=1;collapsible=1;childLayout=tableLayout;fixedRows=1;rowLines=0;fontStyle=1;align=center;resizeLast=1;html=1;fillColor=#ffe6cc;strokeColor=#d79b00;" vertex="1" parent="1">
          <mxGeometry x="610" y="710" width="180" height="120" as="geometry" />
        </mxCell>
        <mxCell id="aQB4AwnQv8sHx1C0hQYE-72" value="" style="shape=tableRow;horizontal=0;startSize=0;swimlaneHead=0;swimlaneBody=0;fillColor=none;collapsible=0;dropTarget=0;points=[[0,0.5],[1,0.5]];portConstraint=eastwest;top=0;left=0;right=0;bottom=1;" vertex="1" parent="aQB4AwnQv8sHx1C0hQYE-71">
          <mxGeometry y="30" width="180" height="30" as="geometry" />
        </mxCell>
        <mxCell id="aQB4AwnQv8sHx1C0hQYE-73" value="PK,FK1" style="shape=partialRectangle;connectable=0;fillColor=none;top=0;left=0;bottom=0;right=0;fontStyle=1;overflow=hidden;whiteSpace=wrap;html=1;" vertex="1" parent="aQB4AwnQv8sHx1C0hQYE-72">
          <mxGeometry width="60" height="30" as="geometry">
            <mxRectangle width="60" height="30" as="alternateBounds" />
          </mxGeometry>
        </mxCell>
        <mxCell id="aQB4AwnQv8sHx1C0hQYE-74" value="PNumber" style="shape=partialRectangle;connectable=0;fillColor=none;top=0;left=0;bottom=0;right=0;align=left;spacingLeft=6;fontStyle=5;overflow=hidden;whiteSpace=wrap;html=1;" vertex="1" parent="aQB4AwnQv8sHx1C0hQYE-72">
          <mxGeometry x="60" width="120" height="30" as="geometry">
            <mxRectangle width="120" height="30" as="alternateBounds" />
          </mxGeometry>
        </mxCell>
        <mxCell id="aQB4AwnQv8sHx1C0hQYE-75" value="" style="shape=tableRow;horizontal=0;startSize=0;swimlaneHead=0;swimlaneBody=0;fillColor=none;collapsible=0;dropTarget=0;points=[[0,0.5],[1,0.5]];portConstraint=eastwest;top=0;left=0;right=0;bottom=0;" vertex="1" parent="aQB4AwnQv8sHx1C0hQYE-71">
          <mxGeometry y="60" width="180" height="30" as="geometry" />
        </mxCell>
        <mxCell id="aQB4AwnQv8sHx1C0hQYE-76" value="&lt;span style=&quot;font-weight: 700;&quot;&gt;PK,FK2&lt;/span&gt;" style="shape=partialRectangle;connectable=0;fillColor=none;top=0;left=0;bottom=0;right=0;editable=1;overflow=hidden;whiteSpace=wrap;html=1;" vertex="1" parent="aQB4AwnQv8sHx1C0hQYE-75">
          <mxGeometry width="60" height="30" as="geometry">
            <mxRectangle width="60" height="30" as="alternateBounds" />
          </mxGeometry>
        </mxCell>
        <mxCell id="aQB4AwnQv8sHx1C0hQYE-77" value="SSN" style="shape=partialRectangle;connectable=0;fillColor=none;top=0;left=0;bottom=0;right=0;align=left;spacingLeft=6;overflow=hidden;whiteSpace=wrap;html=1;" vertex="1" parent="aQB4AwnQv8sHx1C0hQYE-75">
          <mxGeometry x="60" width="120" height="30" as="geometry">
            <mxRectangle width="120" height="30" as="alternateBounds" />
          </mxGeometry>
        </mxCell>
        <mxCell id="aQB4AwnQv8sHx1C0hQYE-78" value="" style="shape=tableRow;horizontal=0;startSize=0;swimlaneHead=0;swimlaneBody=0;fillColor=none;collapsible=0;dropTarget=0;points=[[0,0.5],[1,0.5]];portConstraint=eastwest;top=0;left=0;right=0;bottom=0;" vertex="1" parent="aQB4AwnQv8sHx1C0hQYE-71">
          <mxGeometry y="90" width="180" height="30" as="geometry" />
        </mxCell>
        <mxCell id="aQB4AwnQv8sHx1C0hQYE-79" value="" style="shape=partialRectangle;connectable=0;fillColor=none;top=0;left=0;bottom=0;right=0;editable=1;overflow=hidden;whiteSpace=wrap;html=1;" vertex="1" parent="aQB4AwnQv8sHx1C0hQYE-78">
          <mxGeometry width="60" height="30" as="geometry">
            <mxRectangle width="60" height="30" as="alternateBounds" />
          </mxGeometry>
        </mxCell>
        <mxCell id="aQB4AwnQv8sHx1C0hQYE-80" value="Hours" style="shape=partialRectangle;connectable=0;fillColor=none;top=0;left=0;bottom=0;right=0;align=left;spacingLeft=6;overflow=hidden;whiteSpace=wrap;html=1;" vertex="1" parent="aQB4AwnQv8sHx1C0hQYE-78">
          <mxGeometry x="60" width="120" height="30" as="geometry">
            <mxRectangle width="120" height="30" as="alternateBounds" />
          </mxGeometry>
        </mxCell>
        <mxCell id="aQB4AwnQv8sHx1C0hQYE-81" style="edgeStyle=orthogonalEdgeStyle;rounded=0;orthogonalLoop=1;jettySize=auto;html=1;exitX=0.498;exitY=1.129;exitDx=0;exitDy=0;exitPerimeter=0;" edge="1" parent="1" source="aQB4AwnQv8sHx1C0hQYE-68" target="aQB4AwnQv8sHx1C0hQYE-31">
          <mxGeometry relative="1" as="geometry">
            <Array as="points">
              <mxPoint x="440" y="969" />
              <mxPoint x="440" y="980" />
              <mxPoint x="310" y="980" />
              <mxPoint x="310" y="715" />
            </Array>
            <mxPoint x="440" y="1000" as="sourcePoint" />
          </mxGeometry>
        </mxCell>
        <mxCell id="aQB4AwnQv8sHx1C0hQYE-82" style="edgeStyle=orthogonalEdgeStyle;rounded=0;orthogonalLoop=1;jettySize=auto;html=1;exitX=0;exitY=0.5;exitDx=0;exitDy=0;entryX=0;entryY=0.5;entryDx=0;entryDy=0;" edge="1" parent="1" source="aQB4AwnQv8sHx1C0hQYE-62" target="aQB4AwnQv8sHx1C0hQYE-2">
          <mxGeometry relative="1" as="geometry" />
        </mxCell>
        <mxCell id="aQB4AwnQv8sHx1C0hQYE-83" style="edgeStyle=orthogonalEdgeStyle;rounded=0;orthogonalLoop=1;jettySize=auto;html=1;exitX=0;exitY=0.5;exitDx=0;exitDy=0;entryX=0;entryY=0.5;entryDx=0;entryDy=0;" edge="1" parent="1" source="aQB4AwnQv8sHx1C0hQYE-18" target="aQB4AwnQv8sHx1C0hQYE-2">
          <mxGeometry relative="1" as="geometry" />
        </mxCell>
        <mxCell id="aQB4AwnQv8sHx1C0hQYE-84" style="edgeStyle=orthogonalEdgeStyle;rounded=0;orthogonalLoop=1;jettySize=auto;html=1;exitX=0;exitY=0.5;exitDx=0;exitDy=0;entryX=1;entryY=0.5;entryDx=0;entryDy=0;" edge="1" parent="1" source="aQB4AwnQv8sHx1C0hQYE-75" target="aQB4AwnQv8sHx1C0hQYE-2">
          <mxGeometry relative="1" as="geometry" />
        </mxCell>
        <mxCell id="aQB4AwnQv8sHx1C0hQYE-85" style="edgeStyle=orthogonalEdgeStyle;rounded=0;orthogonalLoop=1;jettySize=auto;html=1;exitX=0;exitY=0.5;exitDx=0;exitDy=0;entryX=0;entryY=0.5;entryDx=0;entryDy=0;" edge="1" parent="1" source="aQB4AwnQv8sHx1C0hQYE-72" target="aQB4AwnQv8sHx1C0hQYE-38">
          <mxGeometry relative="1" as="geometry" />
        </mxCell>
      </root>
    </mxGraphModel>
  </diagram>
</mxfile>
